<svg width="31" height="30" viewBox="0 0 31 30" fill="none" xmlns="http://www.w3.org/2000/svg">
<g filter="url(#filter0_d_2766_73952)">
<path d="M20.625 14.2241C20.6239 14.3693 20.5718 14.5104 20.4765 14.6265C20.3812 14.7425 20.2477 14.8274 20.0958 14.8686L20.0864 14.8712L16.4302 15.8096L15.4064 19.1612L15.4036 19.1698C15.3586 19.309 15.266 19.4314 15.1394 19.5187C15.0128 19.606 14.8589 19.6538 14.7005 19.6549H14.6864C14.531 19.6562 14.3792 19.6126 14.2524 19.5303C14.1255 19.448 14.0302 19.3312 13.98 19.1964L10.9219 11.6387C10.9209 11.6364 10.9201 11.6341 10.9195 11.6318C10.8738 11.5101 10.8663 11.3791 10.8978 11.2537C10.9293 11.1283 10.9986 11.0135 11.0977 10.9224C11.1968 10.8313 11.3219 10.7675 11.4586 10.7384C11.5953 10.7092 11.7383 10.7158 11.8711 10.7574L11.8786 10.7595L20.1248 13.5637C20.2742 13.6104 20.4032 13.6998 20.4932 13.8186C20.5832 13.9374 20.6294 14.0795 20.625 14.2241Z" fill="#4DBF77"/>
</g>
<defs>
<filter id="filter0_d_2766_73952" x="0.878677" y="0.720459" width="29.7466" height="28.9344" filterUnits="userSpaceOnUse" color-interpolation-filters="sRGB">
<feFlood flood-opacity="0" result="BackgroundImageFix"/>
<feColorMatrix in="SourceAlpha" type="matrix" values="0 0 0 0 0 0 0 0 0 0 0 0 0 0 0 0 0 0 127 0" result="hardAlpha"/>
<feOffset/>
<feGaussianBlur stdDeviation="5"/>
<feComposite in2="hardAlpha" operator="out"/>
<feColorMatrix type="matrix" values="0 0 0 0 0.345434 0 0 0 0 1 0 0 0 0 0.58659 0 0 0 1 0"/>
<feBlend mode="normal" in2="BackgroundImageFix" result="effect1_dropShadow_2766_73952"/>
<feBlend mode="normal" in="SourceGraphic" in2="effect1_dropShadow_2766_73952" result="shape"/>
</filter>
</defs>
</svg>
