<svg width="16" height="16" viewBox="0 0 16 16" fill="none" xmlns="http://www.w3.org/2000/svg">
<path d="M2.64597 5.64586C2.69241 5.59937 2.74755 5.56249 2.80825 5.53733C2.86895 5.51216 2.93401 5.49921 2.99972 5.49921C3.06543 5.49921 3.13049 5.51216 3.19119 5.53733C3.25189 5.56249 3.30704 5.59937 3.35347 5.64586L7.99972 10.2927L12.646 5.64586C12.7398 5.55204 12.867 5.49933 12.9997 5.49933C13.1324 5.49933 13.2597 5.55204 13.3535 5.64586C13.4473 5.73968 13.5 5.86692 13.5 5.99961C13.5 6.13229 13.4473 6.25954 13.3535 6.35336L8.35347 11.3534C8.30704 11.3998 8.25189 11.4367 8.19119 11.4619C8.13049 11.487 8.06543 11.5 7.99972 11.5C7.93401 11.5 7.86895 11.487 7.80825 11.4619C7.74755 11.4367 7.69241 11.3998 7.64597 11.3534L2.64597 6.35336C2.59948 6.30692 2.5626 6.25178 2.53744 6.19108C2.51228 6.13038 2.49933 6.06531 2.49933 5.99961C2.49933 5.9339 2.51228 5.86884 2.53744 5.80814C2.5626 5.74744 2.59948 5.69229 2.64597 5.64586Z" fill="#9E9BAD"/>
</svg>
