<svg width="32" height="33" viewBox="0 0 32 33" fill="none" xmlns="http://www.w3.org/2000/svg">
<path opacity="0.2" d="M23.3079 5.3426L28.7802 20.3777L14.6848 25.508L9.21247 10.4729L23.3079 5.3426Z" fill="#CECBDE"/>
<path d="M8.27278 10.8148C8.18207 10.5656 8.19408 10.2906 8.30616 10.0502C8.41825 9.80983 8.62123 9.62384 8.87045 9.53313L22.9658 4.40282C23.2151 4.31211 23.4901 4.32412 23.7305 4.43621C23.9708 4.54829 24.1568 4.75127 24.2476 5.0005C24.3383 5.24972 24.3263 5.52477 24.2142 5.76513C24.1021 6.0055 23.8991 6.1915 23.6499 6.28221L9.55449 11.4125C9.30527 11.5032 9.03022 11.4912 8.78985 11.3791C8.54948 11.267 8.36349 11.0641 8.27278 10.8148ZM25.702 11.9204L11.6066 17.0507C11.3574 17.1414 11.1544 17.3274 11.0423 17.5677C10.9302 17.8081 10.9182 18.0832 11.0089 18.3324C11.0996 18.5816 11.2856 18.7846 11.526 18.8967C11.7664 19.0088 12.0414 19.0208 12.2907 18.9301L26.386 13.7998C26.6353 13.709 26.8382 13.523 26.9503 13.2827C27.0624 13.0423 27.0744 12.7673 26.9837 12.518C26.893 12.2688 26.707 12.0658 26.4666 11.9537C26.2263 11.8417 25.9512 11.8297 25.702 11.9204ZM28.4382 19.4379L14.3428 24.5682C14.0936 24.6589 13.8906 24.8449 13.7785 25.0853C13.6664 25.3256 13.6544 25.6007 13.7451 25.8499C13.8358 26.0991 14.0218 26.3021 14.2622 26.4142C14.5025 26.5263 14.7776 26.5383 15.0268 26.4476L29.1222 21.3173C29.3714 21.2266 29.5744 21.0406 29.6865 20.8002C29.7986 20.5598 29.8106 20.2848 29.7199 20.0356C29.6292 19.7864 29.4432 19.5834 29.2028 19.4713C28.9624 19.3592 28.6874 19.3472 28.4382 19.4379ZM4.17199 11.2432L2.2926 11.9273C2.04338 12.018 1.8404 12.204 1.72831 12.4443C1.61623 12.6847 1.60422 12.9598 1.69493 13.209C1.78564 13.4582 1.97164 13.6612 2.212 13.7733C2.45237 13.8854 2.72742 13.8974 2.97664 13.8067L4.85603 13.1226C5.10525 13.0319 5.30823 12.8459 5.42031 12.6055C5.5324 12.3652 5.54441 12.0901 5.4537 11.8409C5.36299 11.5917 5.17699 11.3887 4.93663 11.2766C4.69626 11.1645 4.42121 11.1525 4.17199 11.2432ZM6.90815 18.7608L5.02876 19.4448C4.77954 19.5355 4.57656 19.7215 4.46448 19.9619C4.35239 20.2023 4.34038 20.4773 4.43109 20.7265C4.5218 20.9757 4.7078 21.1787 4.94816 21.2908C5.18853 21.4029 5.46358 21.4149 5.7128 21.3242L7.59219 20.6402C7.84141 20.5494 8.04439 20.3634 8.15648 20.1231C8.26856 19.8827 8.28057 19.6077 8.18986 19.3584C8.09915 19.1092 7.91315 18.9062 7.67279 18.7942C7.43242 18.6821 7.15737 18.6701 6.90815 18.7608ZM9.64431 26.2783L7.76492 26.9623C7.5157 27.0531 7.31272 27.2391 7.20064 27.4794C7.08855 27.7198 7.07654 27.9948 7.16725 28.2441C7.25796 28.4933 7.44396 28.6963 7.68433 28.8083C7.92469 28.9204 8.19974 28.9324 8.44896 28.8417L10.3283 28.1577C10.5776 28.067 10.7806 27.881 10.8926 27.6406C11.0047 27.4003 11.0167 27.1252 10.926 26.876C10.8353 26.6268 10.6493 26.4238 10.4089 26.3117C10.1686 26.1996 9.89353 26.1876 9.64431 26.2783Z" fill="#706D7E"/>
</svg>
