<svg width="32" height="32" viewBox="0 0 32 32" fill="none" xmlns="http://www.w3.org/2000/svg">
<path opacity="0.2" d="M27.8405 20.06L9.04664 26.9004C8.88181 26.9593 8.70441 26.9739 8.53218 26.9427C8.35995 26.9115 8.19892 26.8357 8.06518 26.7228C7.93144 26.6099 7.82968 26.4638 7.77007 26.2993C7.71045 26.1347 7.69508 25.9574 7.72547 25.785C8.01217 24.1642 8.0971 21.3678 6.56613 17.1615C5.74975 14.9185 5.85782 12.443 6.86659 10.2797C7.87536 8.11643 9.70218 6.44245 11.9452 5.62607C14.1882 4.80968 16.6636 4.91776 18.8269 5.92653C20.9902 6.9353 22.6642 8.76212 23.4806 11.0051C25.012 15.2126 26.8753 17.2986 28.1379 18.3555C28.2722 18.4681 28.3745 18.6141 28.4346 18.7787C28.4946 18.9433 28.5104 19.1208 28.4803 19.2935C28.4502 19.4661 28.3752 19.6278 28.2629 19.7623C28.1506 19.8968 28.0049 19.9995 27.8405 20.06Z" fill="#CECBDE"/>
<path d="M24.5511 5.17486C24.3716 5.36992 24.122 5.48572 23.8571 5.49682C23.5923 5.50791 23.3338 5.41338 23.1386 5.23402C21.5968 3.78856 19.6941 2.78508 17.6304 2.32901C17.502 2.30115 17.3803 2.24828 17.2724 2.17341C17.1644 2.09853 17.0722 2.00313 17.0011 1.89263C16.93 1.78214 16.8814 1.65873 16.858 1.52944C16.8346 1.40015 16.8369 1.26752 16.8647 1.13912C16.8926 1.01071 16.9455 0.889056 17.0204 0.781088C17.0952 0.67312 17.1906 0.580957 17.3011 0.50986C17.4116 0.438764 17.535 0.390127 17.6643 0.366726C17.7936 0.343324 17.9262 0.345618 18.0546 0.373475C20.4627 0.913093 22.6842 2.08261 24.4919 3.76242C24.687 3.94193 24.8028 4.19154 24.8139 4.4564C24.825 4.72125 24.7305 4.97967 24.5511 5.17486ZM2.47273 13.3305C2.64486 13.2677 2.79645 13.1589 2.91095 13.0159C3.02545 12.8729 3.09846 12.7012 3.12202 12.5195C3.37403 10.4211 4.18658 8.42933 5.47429 6.75347C5.63678 6.54368 5.70927 6.27794 5.67583 6.01471C5.64238 5.75147 5.50574 5.5123 5.29595 5.34981C5.08617 5.18732 4.82043 5.11483 4.55719 5.14827C4.29396 5.18172 4.05479 5.31836 3.8923 5.52815C2.3945 7.48937 1.44448 9.81322 1.13941 12.262C1.11734 12.4323 1.13945 12.6053 1.20362 12.7645C1.26779 12.9237 1.37185 13.0637 1.50579 13.171C1.63973 13.2783 1.79904 13.3494 1.96839 13.3773C2.13774 13.4052 2.31142 13.3891 2.47273 13.3305ZM28.776 17.5832C29.0464 17.8081 29.2527 18.1003 29.3741 18.4303C29.4956 18.7604 29.5278 19.1166 29.4676 19.4631C29.4074 19.8096 29.2569 20.1341 29.0313 20.4039C28.8057 20.6737 28.5129 20.8792 28.1825 20.9997L23.3901 22.744C23.561 23.8846 23.3323 25.0493 22.7428 26.0406C22.1533 27.0319 21.2392 27.7889 20.1554 28.1834C19.0716 28.5779 17.8847 28.5855 16.7959 28.2051C15.7071 27.8246 14.7833 27.0794 14.1811 26.0958L9.38866 27.8401C9.05814 27.9597 8.70196 27.99 8.35598 27.9281C8.01 27.8662 7.68645 27.7142 7.41792 27.4874C7.14939 27.2606 6.94537 26.9671 6.82639 26.6364C6.70742 26.3056 6.6777 25.9494 6.74024 25.6035C7.13376 23.3918 6.74997 20.5904 5.62644 17.5035C4.71934 15.0113 4.83943 12.2608 5.96029 9.8571C7.08114 7.45342 9.11094 5.59345 11.6032 4.68636C14.0954 3.77927 16.8459 3.89935 19.2495 5.02021C21.6532 6.14106 23.5132 8.17086 24.4203 10.6631C25.5434 13.7488 27.0501 16.1415 28.776 17.5832ZM21.4426 23.4528L16.1286 25.387C16.5231 25.8651 17.0561 26.2094 17.6542 26.3723C18.2523 26.5352 18.8862 26.5088 19.4687 26.2968C20.0513 26.0848 20.5538 25.6975 20.9072 25.1883C21.2607 24.679 21.4477 24.0727 21.4426 23.4528ZM27.4985 19.1203C25.4676 17.4292 23.8025 14.8134 22.5409 11.3471C21.8152 9.35335 20.3273 7.7295 18.4043 6.83282C16.4814 5.93614 14.281 5.84007 12.2872 6.56574C10.2934 7.29142 8.66958 8.7794 7.7729 10.7023C6.87622 12.6253 6.78015 14.8257 7.50582 16.8194C8.76788 20.2869 9.1714 23.3618 8.70462 25.9607L27.4985 19.1203Z" fill="#706D7E"/>
</svg>
