<svg width="32" height="32" viewBox="0 0 32 32" fill="none" xmlns="http://www.w3.org/2000/svg">
<path opacity="0.2" d="M22.6238 2.80343L24.3339 7.5019L3.66068 15.0263L1.95058 10.3279C1.85987 10.0787 1.87188 9.80361 1.98397 9.56324C2.09605 9.32287 2.29903 9.13687 2.54826 9.04616L21.3421 2.20576C21.5913 2.11505 21.8664 2.12706 22.1067 2.23915C22.3471 2.35123 22.5331 2.55421 22.6238 2.80343Z" fill="#CECBDE"/>
<path d="M21.0001 1.26608L18.181 2.29214L17.839 1.35244C17.7483 1.10322 17.5623 0.90024 17.3219 0.788155C17.0815 0.67607 16.8065 0.664061 16.5573 0.754771C16.3081 0.84548 16.1051 1.03148 15.993 1.27185C15.8809 1.51221 15.8689 1.78726 15.9596 2.03648L16.3016 2.97618L6.9047 6.39638L6.56268 5.45668C6.47197 5.20746 6.28597 5.00448 6.0456 4.8924C5.80524 4.78031 5.53019 4.7683 5.28096 4.85901C5.03174 4.94972 4.82876 5.13572 4.71668 5.37609C4.60459 5.61645 4.59258 5.8915 4.68329 6.14072L5.02531 7.08042L2.20623 8.10648C1.70779 8.2879 1.30183 8.65989 1.07766 9.14063C0.853488 9.62136 0.829471 10.1715 1.01089 10.6699L7.85129 29.4638C8.03271 29.9622 8.4047 30.3682 8.88544 30.5923C9.36618 30.8165 9.91627 30.8405 10.4147 30.6591L29.2086 23.8187C29.707 23.6373 30.113 23.2653 30.3371 22.7845C30.5613 22.3038 30.5853 21.7537 30.4039 21.2553L23.5635 2.46142C23.3821 1.96298 23.0101 1.55702 22.5294 1.33285C22.0486 1.10867 21.4985 1.08466 21.0001 1.26608ZM5.70935 8.9598L6.05137 9.8995C6.14208 10.1487 6.32808 10.3517 6.56845 10.4638C6.80881 10.5759 7.08386 10.5879 7.33309 10.4972C7.58231 10.4065 7.78529 10.2205 7.89737 9.98009C8.00946 9.73973 8.02147 9.46468 7.93076 9.21546L7.58874 8.27576L16.9857 4.85556L17.3277 5.79525C17.4184 6.04448 17.6044 6.24746 17.8448 6.35954C18.0851 6.47163 18.3602 6.48364 18.6094 6.39293C18.8586 6.30222 19.0616 6.11622 19.1737 5.87585C19.2858 5.63548 19.2978 5.36044 19.2071 5.11121L18.865 4.17152L21.6841 3.14546L23.0522 6.90423L4.25836 13.7446L2.89027 9.98586L5.70935 8.9598ZM28.5245 21.9393L9.73068 28.7797L4.9424 15.624L23.7362 8.78362L28.5245 21.9393ZM19.4333 15.3594L18.062 18.2981L21.0015 19.6679C21.1205 19.7234 21.2275 19.8018 21.3163 19.8987C21.4051 19.9956 21.4739 20.109 21.5188 20.2325C21.5638 20.3559 21.5839 20.4871 21.5782 20.6183C21.5725 20.7496 21.5409 20.8785 21.4854 20.9975C21.4299 21.1166 21.3514 21.2236 21.2546 21.3124C21.1577 21.4011 21.0443 21.47 20.9208 21.5149C20.7973 21.5598 20.6662 21.58 20.535 21.5743C20.4037 21.5686 20.2748 21.537 20.1557 21.4815L17.217 20.1102L15.8473 23.0497C15.7917 23.1687 15.7133 23.2757 15.6164 23.3645C15.5195 23.4533 15.4061 23.5221 15.2827 23.567C15.1592 23.612 15.0281 23.6321 14.8968 23.6264C14.7655 23.6207 14.6367 23.5891 14.5176 23.5336C14.3985 23.4781 14.2915 23.3996 14.2028 23.3028C14.114 23.2059 14.0452 23.0925 14.0002 22.969C13.9553 22.8455 13.9351 22.7144 13.9408 22.5832C13.9466 22.4519 13.9781 22.323 14.0336 22.204L15.405 19.2652L12.4655 17.8955C12.225 17.7833 12.0389 17.5802 11.9481 17.3309C11.8573 17.0815 11.8694 16.8063 11.9815 16.5658C12.0937 16.3253 12.2968 16.1392 12.5461 16.0484C12.7955 15.9577 13.0707 15.9697 13.3112 16.0818L16.2499 17.4532L17.6197 14.5137C17.6752 14.3946 17.7536 14.2876 17.8505 14.1988C17.9474 14.1101 18.0608 14.0413 18.1843 13.9963C18.3077 13.9514 18.4389 13.9312 18.5701 13.9369C18.7014 13.9427 18.8302 13.9742 18.9493 14.0297C19.0684 14.0852 19.1754 14.1637 19.2642 14.2606C19.3529 14.3574 19.4218 14.4708 19.4667 14.5943C19.5116 14.7178 19.5318 14.8489 19.5261 14.9802C19.5204 15.1114 19.4888 15.2403 19.4333 15.3594Z" fill="#706D7E"/>
</svg>
