<svg width="32" height="33" viewBox="0 0 32 33" fill="none" xmlns="http://www.w3.org/2000/svg">
<g clip-path="url(#clip0_3123_73701)">
<path opacity="0.2" d="M24.8818 12.642L25.955 9.45789C25.3254 8.5553 24.5784 7.7406 23.7337 7.03526L20.4692 7.82437C20.116 7.63329 19.7516 7.4634 19.3782 7.3156L17.8839 4.30646C16.8008 4.11623 15.6972 4.07059 14.602 4.17073L12.8523 7.03837C12.4671 7.15331 12.089 7.29093 11.72 7.4505L8.53589 6.3773C7.63684 7.00648 6.82533 7.7523 6.12267 8.59517L6.91177 11.8597C6.7207 12.2129 6.5508 12.5773 6.40301 12.9507L3.39386 14.445C3.20363 15.5281 3.15799 16.6317 3.25813 17.7269L6.12577 19.4766C6.24071 19.8618 6.37833 20.2399 6.5379 20.6089L5.4647 23.793C6.09428 24.6956 6.84128 25.5103 7.686 26.2156L10.9505 25.4265C11.3038 25.6176 11.6681 25.7875 12.0415 25.9353L13.5358 28.9444C14.619 29.1347 15.7225 29.1803 16.8177 29.0802L18.5674 26.2125C18.9527 26.0976 19.3308 25.96 19.6997 25.8004L22.8838 26.8736C23.7864 26.244 24.6011 25.497 25.3064 24.6523L24.5173 21.3878C24.7084 21.0345 24.8783 20.6702 25.0261 20.2968L28.0353 18.8025C28.2255 17.7193 28.2711 16.6157 28.171 15.5206L25.3033 13.7709C25.1852 13.3866 25.0445 13.0096 24.8818 12.642ZM17.4175 21.3208C16.4882 21.659 15.4795 21.7141 14.519 21.4791C13.5584 21.244 12.6891 20.7294 12.021 20.0003C11.3529 19.2712 10.916 18.3604 10.7656 17.383C10.6152 16.4056 10.7579 15.4055 11.1759 14.5093C11.5938 13.613 12.2681 12.8608 13.1135 12.3478C13.959 11.8348 14.9375 11.584 15.9255 11.6271C16.9135 11.6702 17.8665 12.0054 18.664 12.5901C19.4614 13.1749 20.0676 13.983 20.4059 14.9122C20.8594 16.1584 20.7994 17.5336 20.2389 18.7354C19.6785 19.9373 18.6636 20.8673 17.4175 21.3208Z" fill="#CECBDE"/>
<path d="M13.6553 10.9842C12.5402 11.39 11.5704 12.1175 10.8687 13.0745C10.167 14.0315 9.76488 15.175 9.71311 16.3606C9.66135 17.5462 9.96231 18.7205 10.5779 19.735C11.1936 20.7495 12.0962 21.5587 13.1717 22.0602C14.2472 22.5617 15.4473 22.733 16.6201 22.5525C17.793 22.372 18.886 21.8477 19.7609 21.046C20.6359 20.2443 21.2534 19.2011 21.5355 18.0484C21.8175 16.8958 21.7514 15.6853 21.3456 14.5702C20.7999 13.0759 19.6838 11.8591 18.242 11.1868C16.8003 10.5145 15.1507 10.4416 13.6553 10.9842ZM17.0755 20.3811C16.3321 20.6517 15.5251 20.6957 14.7567 20.5077C13.9882 20.3197 13.2928 19.908 12.7583 19.3247C12.2238 18.7414 11.8743 18.0127 11.754 17.2308C11.6336 16.4489 11.7478 15.6489 12.0822 14.9319C12.4165 14.2148 12.956 13.6131 13.6323 13.2027C14.3087 12.7923 15.0915 12.5916 15.8819 12.6261C16.6723 12.6606 17.4346 12.9287 18.0726 13.3965C18.7106 13.8643 19.1956 14.5108 19.4662 15.2542C19.829 16.2511 19.781 17.3513 19.3326 18.3128C18.8843 19.2743 18.0724 20.0183 17.0755 20.3811ZM26.1364 13.1138C26.0795 12.943 26.0179 12.7738 25.9517 12.6064L26.9073 9.77903C26.9573 9.63063 26.9718 9.47255 26.9496 9.31751C26.9274 9.16248 26.869 9.01484 26.7793 8.88648C26.0985 7.91147 25.2914 7.03106 24.3791 6.26826C24.2596 6.16851 24.1185 6.09802 23.967 6.06242C23.8154 6.02681 23.6577 6.02706 23.5063 6.06315L20.6072 6.76715C20.4469 6.68717 20.2867 6.61246 20.1266 6.54302L18.781 3.86949C18.7112 3.73024 18.6098 3.60924 18.4849 3.51612C18.36 3.42301 18.2151 3.36036 18.0617 3.33316C16.8912 3.12502 15.6982 3.07344 14.5141 3.17979C14.3581 3.19355 14.2075 3.24376 14.0744 3.32639C13.9414 3.40901 13.8296 3.52173 13.7481 3.65546L12.1989 6.19336C12.0298 6.25492 11.8606 6.31649 11.6915 6.37805L8.8654 5.42596C8.71699 5.3759 8.55891 5.36141 8.40387 5.38364C8.24884 5.40587 8.1012 5.46421 7.97284 5.55394C6.99783 6.23476 6.11742 7.04187 5.35462 7.95418C5.25487 8.07366 5.18438 8.21478 5.14878 8.3663C5.11317 8.51782 5.11342 8.67556 5.14952 8.82697L5.85522 11.7307C5.77552 11.8919 5.70081 12.0521 5.63109 12.2114L2.95457 13.5487C2.81532 13.6185 2.69432 13.7199 2.6012 13.8448C2.50809 13.9697 2.44544 14.1146 2.41824 14.268C2.21028 15.4387 2.15831 16.6318 2.26369 17.8161C2.27765 17.9721 2.32807 18.1227 2.4109 18.2557C2.49373 18.3887 2.60664 18.5003 2.74054 18.5817L5.27844 20.1308C5.34 20.3 5.40157 20.4691 5.46313 20.6383L4.51103 23.4643C4.46098 23.6127 4.44649 23.7708 4.46872 23.9259C4.49095 24.0809 4.54928 24.2285 4.63902 24.3569C5.31984 25.3319 6.12695 26.2123 7.03926 26.9751C7.15874 27.0749 7.29986 27.1453 7.45138 27.181C7.6029 27.2166 7.76064 27.2163 7.91204 27.1802L10.8111 26.4762C10.9722 26.5559 11.1325 26.6306 11.2917 26.7003L12.6338 29.3752C12.7036 29.5144 12.805 29.6354 12.9299 29.7285C13.0548 29.8216 13.1997 29.8843 13.3531 29.9115C14.5238 30.1194 15.7168 30.1714 16.9012 30.066C17.0572 30.0521 17.2078 30.0017 17.3408 29.9188C17.4737 29.836 17.5854 29.7231 17.6667 29.5892L19.2159 27.0513C19.3868 26.9944 19.5559 26.9329 19.7233 26.8666L22.5507 27.8222C22.6991 27.8723 22.8572 27.8868 23.0122 27.8645C23.1672 27.8423 23.3149 27.784 23.4432 27.6942C24.4186 27.0139 25.2991 26.2067 26.0615 25.294C26.1612 25.1745 26.2317 25.0334 26.2673 24.8819C26.3029 24.7304 26.3027 24.5726 26.2666 24.4212L25.5626 21.5222C25.6426 21.3618 25.7173 21.2016 25.7867 21.0415L28.4602 19.696C28.5995 19.6261 28.7205 19.5247 28.8136 19.3998C28.9067 19.2749 28.9694 19.13 28.9966 18.9766C29.2045 17.806 29.2565 16.6129 29.1511 15.4286C29.1372 15.2725 29.0867 15.1219 29.0039 14.989C28.9211 14.856 28.8082 14.7443 28.6743 14.663L26.1364 13.1138ZM23.9673 13.0386C24.1109 13.3709 24.2348 13.7114 24.3384 14.0582C24.4091 14.2958 24.5654 14.4987 24.7771 14.6275L27.2019 16.1034C27.2319 16.7809 27.2016 17.4596 27.1114 18.1317L24.5662 19.3986C24.3444 19.5084 24.1711 19.6966 24.08 19.9268C23.9465 20.2633 23.7933 20.5918 23.6213 20.9105C23.5036 21.1282 23.4708 21.3819 23.5292 21.6224L24.1998 24.382C23.743 24.8832 23.2425 25.3427 22.7042 25.7551L20.0138 24.8467C19.7985 24.7742 19.565 24.7771 19.3516 24.8549L19.2953 24.8754C18.963 25.019 18.6225 25.1429 18.2757 25.2465C18.0384 25.3178 17.8358 25.474 17.7064 25.6852L16.225 28.1133C15.5476 28.1433 14.8688 28.113 14.1967 28.0228L12.9311 25.4811C12.8213 25.2593 12.6331 25.086 12.403 24.9949C12.0664 24.8614 11.7379 24.7082 11.4193 24.5362C11.2015 24.4185 10.9479 24.3857 10.7073 24.4442L7.94732 25.1135C7.44611 24.6568 6.98661 24.1563 6.57425 23.6179L7.4826 20.9275C7.56196 20.6927 7.5513 20.4368 7.4527 20.2094C7.30914 19.8771 7.18523 19.5367 7.0816 19.1899C7.01098 18.9523 6.85466 18.7494 6.64294 18.6206L4.21644 17.1399C4.18647 16.4625 4.21676 15.7837 4.30694 15.1117L6.8486 13.846C7.07045 13.7362 7.24368 13.548 7.33479 13.3179C7.46834 12.9813 7.6215 12.6528 7.7935 12.3342C7.9119 12.1161 7.94498 11.8618 7.88631 11.6207L7.21622 8.86224C7.67297 8.36104 8.17347 7.90153 8.71179 7.48917L11.4022 8.39752C11.637 8.47688 11.8929 8.46623 12.1203 8.36762C12.4526 8.22406 12.793 8.10015 13.1399 7.99653C13.3771 7.92526 13.5798 7.7691 13.7092 7.55786L15.1898 5.13137C15.8672 5.10139 16.546 5.13168 17.2181 5.22186L18.4837 7.76353C18.5935 7.98537 18.7817 8.1586 19.0118 8.24971C19.3484 8.38326 19.6769 8.53643 19.9955 8.70843C20.2133 8.82617 20.4669 8.85897 20.7075 8.80049L23.4671 8.12996C23.9683 8.58672 24.4278 9.08722 24.8401 9.62554L23.9318 12.316C23.8516 12.5528 23.863 12.8111 23.9638 13.0399L23.9673 13.0386Z" fill="#706D7E"/>
</g>
<defs>
<clipPath id="clip0_3123_73701">
<rect width="32" height="32" fill="white" transform="translate(-1.90735e-06 0.659668)"/>
</clipPath>
</defs>
</svg>
