<svg width="32" height="33" viewBox="0 0 32 33" fill="none" xmlns="http://www.w3.org/2000/svg">
<g clip-path="url(#clip0_3123_85324)">
<path opacity="0.2" d="M26.9837 12.5183C28.0722 15.5089 27.9281 18.8095 26.5831 21.6939C25.2381 24.5783 22.8023 26.8103 19.8116 27.8988L17.4175 21.321C18.6636 20.8674 19.6785 19.9374 20.2389 18.7356C20.7994 17.5338 20.8594 16.1585 20.4059 14.9124C19.9523 13.6663 19.0223 12.6514 17.8205 12.091C16.6187 11.5305 15.2434 11.4705 13.9973 11.924L11.6032 5.34619C14.5938 4.25768 17.8944 4.40179 20.7788 5.74681C23.6632 7.09183 25.8952 9.5276 26.9837 12.5183Z" fill="#CECBDE"/>
<path d="M11.2611 4.40652C11.0119 4.49723 10.8089 4.68323 10.6969 4.9236C10.5848 5.16397 10.5728 5.43901 10.6635 5.68824L13.0576 12.2661C13.1483 12.5153 13.3343 12.7183 13.5747 12.8304C13.8151 12.9425 14.0901 12.9545 14.3393 12.8638C15.1668 12.5628 16.0704 12.5433 16.9101 12.8082C17.7498 13.0731 18.4786 13.6077 18.9836 14.3291C19.4885 15.0504 19.7413 15.9182 19.7027 16.7979C19.6642 17.6775 19.3365 18.5199 18.7704 19.1943C18.2044 19.8688 17.4316 20.3376 16.572 20.5281C15.7123 20.7186 14.8139 20.6201 14.0159 20.248C13.2179 19.8758 12.565 19.2508 12.1585 18.4697C11.7519 17.6887 11.6144 16.7954 11.7673 15.9282C11.7901 15.7989 11.7873 15.6663 11.7588 15.5381C11.7304 15.4098 11.677 15.2884 11.6016 15.1808C11.5263 15.0733 11.4305 14.9816 11.3197 14.911C11.2089 14.8405 11.0852 14.7924 10.9559 14.7697L4.06192 13.5542C3.93257 13.5314 3.79998 13.5343 3.67174 13.5627C3.5435 13.5912 3.42212 13.6446 3.31453 13.7199C3.20693 13.7953 3.11524 13.8911 3.04469 14.0019C2.97414 14.1127 2.9261 14.2363 2.90333 14.3657C2.40641 17.1839 2.85326 20.0873 4.1746 22.6256C5.49593 25.164 7.6179 27.1954 10.2114 28.4049C12.8049 29.6144 15.7251 29.9343 18.5189 29.3151C21.3128 28.6958 23.8243 27.172 25.6639 24.98C27.5035 22.7879 28.5684 20.0501 28.6934 17.1912C28.8185 14.3323 27.9967 11.5119 26.3555 9.16763C24.7144 6.82333 22.3455 5.08605 19.6164 4.22522C16.8873 3.36439 13.9504 3.42812 11.2611 4.40652ZM4.74348 15.7045L9.70595 16.5801C9.70166 17.2943 9.82468 18.0036 10.0692 18.6746C10.1347 18.8544 10.2069 19.0236 10.2883 19.1962L6.16242 22.0919C5.05369 20.1556 4.55889 17.9282 4.74348 15.7045ZM7.30753 23.725L11.4422 20.8314C12.1291 21.5269 12.9751 22.0444 13.9071 22.3391C14.8391 22.6338 15.8289 22.6969 16.7908 22.5228L18.5141 27.2577C16.5031 27.7854 14.3839 27.7338 12.401 27.1087C10.4181 26.4837 8.65234 25.3106 7.30753 23.725ZM20.3935 26.5737L18.6701 21.8388C19.9024 21.1382 20.8468 20.024 21.336 18.6937C21.8252 17.3633 21.8276 15.9027 21.3428 14.5707C20.858 13.2388 19.9173 12.1214 18.6874 11.4168C17.4575 10.7121 16.0179 10.4657 14.6236 10.7211L12.9003 5.98618C15.5536 5.28614 18.3728 5.60312 20.8044 6.87489C23.236 8.14666 25.1045 10.2814 26.043 12.86C26.9816 15.4386 26.9224 18.275 25.8772 20.8122C24.8319 23.3495 22.876 25.4044 20.3935 26.5737Z" fill="#706D7E"/>
</g>
<defs>
<clipPath id="clip0_3123_85324">
<rect width="32" height="32" fill="white" transform="translate(-1.90735e-06 0.65976)"/>
</clipPath>
</defs>
</svg>
