<svg width="46" height="46" viewBox="0 0 46 46" fill="none" xmlns="http://www.w3.org/2000/svg">
<g filter="url(#filter0_bd_2852_91567)">
<rect x="10" width="26" height="26" rx="10" fill="#CECBDE" shape-rendering="crispEdges"/>
<rect x="10.5" y="0.5" width="25" height="25" rx="9.5" stroke="url(#paint0_linear_2852_91567)" stroke-opacity="0.07" shape-rendering="crispEdges"/>
<path d="M28.5 8H26V7.5C26 7.10218 25.842 6.72064 25.5607 6.43934C25.2794 6.15804 24.8978 6 24.5 6H21.5C21.1022 6 20.7206 6.15804 20.4393 6.43934C20.158 6.72064 20 7.10218 20 7.5V8H17.5C17.3674 8 17.2402 8.05268 17.1464 8.14645C17.0527 8.24021 17 8.36739 17 8.5C17 8.63261 17.0527 8.75979 17.1464 8.85355C17.2402 8.94732 17.3674 9 17.5 9H18V18C18 18.2652 18.1054 18.5196 18.2929 18.7071C18.4804 18.8946 18.7348 19 19 19H27C27.2652 19 27.5196 18.8946 27.7071 18.7071C27.8946 18.5196 28 18.2652 28 18V9H28.5C28.6326 9 28.7598 8.94732 28.8536 8.85355C28.9473 8.75979 29 8.63261 29 8.5C29 8.36739 28.9473 8.24021 28.8536 8.14645C28.7598 8.05268 28.6326 8 28.5 8ZM21 7.5C21 7.36739 21.0527 7.24021 21.1464 7.14645C21.2402 7.05268 21.3674 7 21.5 7H24.5C24.6326 7 24.7598 7.05268 24.8536 7.14645C24.9473 7.24021 25 7.36739 25 7.5V8H21V7.5ZM27 18H19V9H27V18ZM22 11.5V15.5C22 15.6326 21.9473 15.7598 21.8536 15.8536C21.7598 15.9473 21.6326 16 21.5 16C21.3674 16 21.2402 15.9473 21.1464 15.8536C21.0527 15.7598 21 15.6326 21 15.5V11.5C21 11.3674 21.0527 11.2402 21.1464 11.1464C21.2402 11.0527 21.3674 11 21.5 11C21.6326 11 21.7598 11.0527 21.8536 11.1464C21.9473 11.2402 22 11.3674 22 11.5ZM25 11.5V15.5C25 15.6326 24.9473 15.7598 24.8536 15.8536C24.7598 15.9473 24.6326 16 24.5 16C24.3674 16 24.2402 15.9473 24.1464 15.8536C24.0527 15.7598 24 15.6326 24 15.5V11.5C24 11.3674 24.0527 11.2402 24.1464 11.1464C24.2402 11.0527 24.3674 11 24.5 11C24.6326 11 24.7598 11.0527 24.8536 11.1464C24.9473 11.2402 25 11.3674 25 11.5Z" fill="#FF3F69"/>
</g>
<defs>
<filter id="filter0_bd_2852_91567" x="0" y="-10" width="46" height="56" filterUnits="userSpaceOnUse" color-interpolation-filters="sRGB">
<feFlood flood-opacity="0" result="BackgroundImageFix"/>
<feGaussianBlur in="BackgroundImageFix" stdDeviation="5"/>
<feComposite in2="SourceAlpha" operator="in" result="effect1_backgroundBlur_2852_91567"/>
<feColorMatrix in="SourceAlpha" type="matrix" values="0 0 0 0 0 0 0 0 0 0 0 0 0 0 0 0 0 0 127 0" result="hardAlpha"/>
<feOffset dy="10"/>
<feGaussianBlur stdDeviation="5"/>
<feComposite in2="hardAlpha" operator="out"/>
<feColorMatrix type="matrix" values="0 0 0 0 0 0 0 0 0 0 0 0 0 0 0 0 0 0 0.3 0"/>
<feBlend mode="normal" in2="effect1_backgroundBlur_2852_91567" result="effect2_dropShadow_2852_91567"/>
<feBlend mode="normal" in="SourceGraphic" in2="effect2_dropShadow_2852_91567" result="shape"/>
</filter>
<linearGradient id="paint0_linear_2852_91567" x1="36" y1="26" x2="4.69147" y2="11.7862" gradientUnits="userSpaceOnUse">
<stop stop-color="#EFEFEF" stop-opacity="0.3"/>
<stop offset="1" stop-color="#CFCFCF"/>
</linearGradient>
</defs>
</svg>
