<svg width="26" height="13" viewBox="0 0 26 13" fill="none" xmlns="http://www.w3.org/2000/svg">
<path fill-rule="evenodd" clip-rule="evenodd" d="M4.80402 1.67584C5.35476 1.91296 5.57799 2.48964 5.30262 2.96389C5.02725 3.43814 4.35755 3.63037 3.80681 3.39324L1.577 2.43318C1.02626 2.19606 0.803027 1.61938 1.0784 1.14513C1.35377 0.670881 2.02346 0.478654 2.5742 0.715778L4.80402 1.67584ZM21.1467 2.96389C20.8713 2.48964 21.0946 1.91296 21.6453 1.67584L23.8751 0.715778C24.4259 0.478654 25.0956 0.670881 25.3709 1.14513C25.6463 1.61938 25.4231 2.19606 24.8723 2.43318L22.6425 3.39324C22.0918 3.63037 21.4221 3.43814 21.1467 2.96389ZM8.51728 1.57447C8.0592 1.57447 7.73239 1.77485 7.54924 1.93423C7.36965 2.0905 7.25088 2.26992 7.17122 2.41453C7.00951 2.7081 6.89461 3.07193 6.80909 3.44653C6.63435 4.21185 6.53522 5.23768 6.53522 6.37476C6.53522 7.51184 6.63435 8.53767 6.80909 9.30299C6.89461 9.6776 7.00951 10.0414 7.17122 10.335C7.25088 10.4796 7.36965 10.659 7.54924 10.8153C7.73239 10.9747 8.05919 11.1751 8.51728 11.1751C9.0381 11.1751 10.0643 10.9473 10.9667 10.2386C11.9246 9.48632 12.6672 8.25647 12.6672 6.37476C12.6672 4.49305 11.9246 3.2632 10.9667 2.51094C10.0643 1.80218 9.0381 1.57447 8.51728 1.57447ZM8.76504 6.37476C8.76504 5.31742 8.85861 4.42314 8.99701 3.81695C9.0095 3.76227 9.02201 3.71149 9.03439 3.66448C9.16788 3.72744 9.31587 3.81317 9.46416 3.92963C9.90337 4.27458 10.4374 4.96485 10.4374 6.37476C10.4374 7.78468 9.90337 8.47495 9.46416 8.8199C9.31587 8.93635 9.16788 9.02209 9.03439 9.08505C9.02201 9.03804 9.0095 8.98726 8.99701 8.93258C8.85861 8.32639 8.76504 7.4321 8.76504 6.37476ZM9.19799 3.21731L9.19559 3.22084C9.19715 3.21839 9.19797 3.21726 9.19799 3.21731ZM9.19786 9.53208C9.19794 9.53218 9.19799 9.53223 9.19799 9.53222L9.19559 9.52869L9.19786 9.53208ZM17.932 1.57447C18.3901 1.57447 18.7169 1.77485 18.9001 1.93423C19.0797 2.0905 19.1985 2.26992 19.2781 2.41453C19.4398 2.7081 19.5547 3.07193 19.6402 3.44653C19.815 4.21185 19.9141 5.23768 19.9141 6.37476C19.9141 7.51184 19.815 8.53767 19.6402 9.30299C19.5547 9.6776 19.4398 10.0414 19.2781 10.335C19.1985 10.4796 19.0797 10.659 18.9001 10.8153C18.7169 10.9747 18.3901 11.1751 17.932 11.1751C17.4112 11.1751 16.385 10.9473 15.4826 10.2386C14.5247 9.48632 13.7821 8.25647 13.7821 6.37476C13.7821 4.49305 14.5247 3.2632 15.4826 2.51094C16.385 1.80218 17.4112 1.57447 17.932 1.57447ZM17.6843 6.37476C17.6843 5.31742 17.5907 4.42314 17.4523 3.81695C17.4398 3.76227 17.4273 3.71149 17.4149 3.66448C17.2815 3.72744 17.1335 3.81317 16.9852 3.92963C16.546 4.27458 16.0119 4.96485 16.0119 6.37476C16.0119 7.78468 16.546 8.47495 16.9852 8.8199C17.1335 8.93635 17.2815 9.02209 17.4149 9.08505C17.4273 9.03804 17.4398 8.98726 17.4523 8.93258C17.5907 8.32639 17.6843 7.4321 17.6843 6.37476ZM17.2513 3.21731L17.2537 3.22084C17.2522 3.21839 17.2514 3.21726 17.2513 3.21731ZM21.029 6.37477C21.029 5.84454 21.5282 5.41471 22.1439 5.41471H24.3737C24.9895 5.41471 25.4886 5.84454 25.4886 6.37477C25.4886 6.90499 24.9895 7.33482 24.3737 7.33482H22.1439C21.5282 7.33482 21.029 6.90499 21.029 6.37477ZM4.30541 5.41471C4.92116 5.41471 5.42032 5.84454 5.42032 6.37477C5.42032 6.90499 4.92116 7.33482 4.30541 7.33482H2.0756C1.45985 7.33482 0.960691 6.90499 0.960691 6.37477C0.960691 5.84454 1.45985 5.41471 2.0756 5.41471H4.30541ZM21.1467 9.78564C20.8713 10.2599 21.0946 10.8366 21.6453 11.0737L23.8751 12.0338C24.4259 12.2709 25.0956 12.0786 25.3709 11.6044C25.6463 11.1302 25.4231 10.5535 24.8723 10.3163L22.6425 9.35629C22.0918 9.11916 21.4221 9.31139 21.1467 9.78564ZM4.80402 11.0737C5.35476 10.8366 5.57799 10.2599 5.30262 9.78564C5.02725 9.31139 4.35755 9.11916 3.80681 9.35629L1.577 10.3163C1.02626 10.5535 0.803027 11.1302 1.0784 11.6044C1.35377 12.0786 2.02346 12.2709 2.5742 12.0338L4.80402 11.0737Z"/>
</svg>
