<svg width="14" height="14" viewBox="0 0 14 14" fill="none" xmlns="http://www.w3.org/2000/svg">
<path d="M13.5 5.59862C13.4985 5.8099 13.4291 6.01509 13.302 6.18391C13.1749 6.35272 12.997 6.4762 12.7944 6.53612L12.7819 6.53987L7.90686 7.90487L6.54186 12.7799L6.53811 12.7924C6.4781 12.9949 6.35459 13.1728 6.1858 13.2999C6.01701 13.4269 5.81186 13.4964 5.60061 13.498H5.58186C5.3747 13.4999 5.17219 13.4365 5.00311 13.3168C4.83403 13.1971 4.70697 13.0272 4.63998 12.8311L0.562484 1.83799C0.561165 1.83475 0.560119 1.83141 0.559359 1.82799C0.498424 1.65102 0.488382 1.46049 0.530376 1.27808C0.572371 1.09568 0.664716 0.928721 0.796907 0.796205C0.929098 0.663689 1.09583 0.570933 1.27813 0.52849C1.46043 0.486047 1.65098 0.49562 1.82811 0.55612L1.83811 0.559245L12.8331 4.638C13.0322 4.70605 13.2043 4.83598 13.3243 5.00881C13.4443 5.18164 13.5058 5.38831 13.5 5.59862Z" fill="#4DBF77"/>
</svg>
