<svg width="12" height="16" viewBox="0 0 12 16" fill="none" xmlns="http://www.w3.org/2000/svg">
<path d="M6.00014 2.66654C7.28681 2.66654 8.45348 3.18654 9.30014 4.03321L8.36014 4.97321C7.75348 4.37321 6.92014 3.99988 6.00014 3.99988C5.08014 3.99988 4.24681 4.37321 3.64014 4.97321L2.70014 4.03321C3.54681 3.18654 4.71348 2.66654 6.00014 2.66654ZM11.1868 2.15321L10.2468 3.09321C9.16014 2.00654 7.66014 1.33321 6.00681 1.33321C4.35348 1.33321 2.84681 2.00654 1.76014 3.08654L0.813477 2.14654C2.14681 0.819878 3.98014 -0.00012207 6.00681 -0.00012207C8.03348 -0.00012207 9.86014 0.819878 11.1868 2.15321ZM6.00014 7.33321C7.29348 7.33321 8.66681 8.29988 8.66681 10.0999C8.66681 10.7265 8.30014 12.0532 6.00014 14.2132C3.70014 12.0532 3.33348 10.7265 3.33348 10.0999C3.33348 8.29988 4.70681 7.33321 6.00014 7.33321ZM6.00014 5.99988C3.90014 5.99988 2.00014 7.60654 2.00014 10.0999C2.00014 11.7599 3.33348 13.7265 6.00014 15.9999C8.66681 13.7265 10.0001 11.7599 10.0001 10.0999C10.0001 7.60654 8.10014 5.99988 6.00014 5.99988ZM7.00014 9.99988C7.00014 9.44654 6.55348 8.99988 6.00014 8.99988C5.44681 8.99988 5.00014 9.44654 5.00014 9.99988C5.00014 10.5532 5.44681 10.9999 6.00014 10.9999C6.55348 10.9999 7.00014 10.5532 7.00014 9.99988Z" fill="#CECBDE"/>
</svg>
