<svg width="32" height="33" viewBox="0 0 32 33" fill="none" xmlns="http://www.w3.org/2000/svg">
<g clip-path="url(#clip0_3123_73677)">
<path opacity="0.2" d="M17.072 8.67654L23.2284 25.591L14.3428 24.5684L8.18641 7.65393L17.072 8.67654Z" fill="#CECBDE"/>
<path d="M24.2137 3.10942C24.0692 3.06268 23.916 3.04946 23.7656 3.07077C23.6152 3.09207 23.4717 3.14734 23.3459 3.23238L16.8187 7.64065L8.30082 6.6598C8.06358 6.63273 7.82449 6.69144 7.62678 6.82532L0.793275 11.4409C0.608478 11.5657 0.470699 11.7487 0.401837 11.9608C0.332975 12.1729 0.336981 12.4019 0.413218 12.6114L6.56958 29.5259C6.62157 29.6687 6.70542 29.7977 6.81475 29.9033C6.92408 30.0088 7.05603 30.088 7.20056 30.1349C7.34509 30.1818 7.49841 30.1952 7.64887 30.1739C7.79934 30.1527 7.94298 30.0975 8.06891 30.0125L14.5961 25.6042L23.114 26.585C23.2683 26.6019 23.4244 26.5833 23.5704 26.5306C23.6472 26.5026 23.7203 26.4653 23.788 26.4195L30.6215 21.804C30.8063 21.6792 30.9441 21.4962 31.013 21.2841C31.0818 21.072 31.0778 20.8429 31.0016 20.6334L24.8452 3.71892C24.7932 3.57599 24.7093 3.4468 24.5999 3.34118C24.4905 3.23556 24.3584 3.1563 24.2137 3.10942ZM9.67932 8.83181L16.3435 9.59877L21.7355 24.413L15.0713 23.6461L9.67932 8.83181ZM2.55981 12.6615L7.68493 9.19988L13.1359 24.1762L8.01075 27.6379L2.55981 12.6615ZM28.855 20.5833L23.7299 24.045L18.2789 9.0686L23.4041 5.60694L28.855 20.5833Z" fill="#706D7E"/>
</g>
<defs>
<clipPath id="clip0_3123_73677">
<rect width="32" height="32" fill="white" transform="translate(-1.90735e-06 0.659668)"/>
</clipPath>
</defs>
</svg>
