<svg width="14" height="14" viewBox="0 0 14 14" fill="none" xmlns="http://www.w3.org/2000/svg">
<path d="M11.9373 2.14052C11.4289 1.62162 10.8221 1.20927 10.1525 0.927571C9.48286 0.645875 8.76379 0.500483 8.03732 0.499896H8.0167C7.29354 0.498037 6.5772 0.639656 5.90915 0.916552C5.2411 1.19345 4.63462 1.60012 4.12482 2.11302L0.287946 5.9999C0.102193 6.18775 -0.00167564 6.44148 -0.000973021 6.70567C-0.000270399 6.96986 0.104946 7.22303 0.291696 7.4099L2.08295 9.20115C2.17567 9.29432 2.28593 9.36819 2.40737 9.4185C2.5288 9.46881 2.659 9.49457 2.79045 9.49427H2.79607C2.92847 9.49356 3.0594 9.46656 3.18128 9.41485C3.30316 9.36314 3.41356 9.28773 3.50607 9.19302L7.31232 5.29302C7.49818 5.10902 7.74845 5.00472 8.00997 5.00227C8.27149 4.99981 8.52367 5.09941 8.71295 5.2799C8.80649 5.37077 8.88086 5.47949 8.93164 5.59962C8.98241 5.71975 9.00858 5.84885 9.00857 5.97927C9.00984 6.11807 8.98372 6.25576 8.9317 6.38446C8.87969 6.51315 8.8028 6.63033 8.70545 6.72927L4.81232 10.4924C4.71723 10.5847 4.64145 10.695 4.58938 10.8169C4.5373 10.9388 4.50997 11.0698 4.50899 11.2024C4.508 11.3349 4.53337 11.4663 4.58362 11.589C4.63387 11.7116 4.708 11.823 4.8017 11.9168L6.59295 13.708C6.77969 13.8936 7.03188 13.9984 7.29516 13.9998C7.55844 14.0012 7.81173 13.8991 8.00045 13.7155L11.8629 9.9374C14.0161 7.78115 14.0492 4.2849 11.9373 2.14052ZM2.79045 8.49302L0.999821 6.7024L2.48732 5.1949L4.26982 6.9774L2.79045 8.49302ZM7.2992 12.9999L5.5067 11.2093L7.03045 9.73615L8.81232 11.5199L7.2992 12.9999ZM11.1592 9.2224L9.52732 10.8186L7.74982 9.0424L9.40232 7.44427L9.40857 7.43865C9.60025 7.24541 9.75179 7.01614 9.85444 6.76406C9.9571 6.51198 10.0088 6.24207 10.0067 5.9699C10.0056 5.70691 9.95166 5.44682 9.84817 5.20505C9.74467 4.96328 9.5937 4.74475 9.4042 4.5624C9.02446 4.20118 8.51879 4.00234 7.99473 4.00818C7.47066 4.01401 6.96954 4.22406 6.59795 4.59365L4.96795 6.26115L3.18732 4.48365L4.8342 2.81802C5.2511 2.39871 5.74707 2.0663 6.29336 1.84004C6.83965 1.61378 7.4254 1.49816 8.0167 1.4999H8.03357C8.62792 1.50041 9.21622 1.6194 9.76405 1.84991C10.3119 2.08041 10.8083 2.41782 11.2242 2.8424C12.9529 4.59677 12.9217 7.46115 11.1592 9.22365V9.2224Z" fill="#CECBDE"/>
</svg>
