<svg width="18" height="18" viewBox="0 0 18 18" fill="none" xmlns="http://www.w3.org/2000/svg">
<path d="M18 1.49995V5.99995C18 6.19886 17.921 6.38962 17.7803 6.53028C17.6397 6.67093 17.4489 6.74995 17.25 6.74995H12.75C12.5511 6.74995 12.3603 6.67093 12.2197 6.53028C12.079 6.38962 12 6.19886 12 5.99995C12 5.80103 12.079 5.61027 12.2197 5.46962C12.3603 5.32896 12.5511 5.24995 12.75 5.24995H15.4397L14.0681 3.87838C12.6742 2.47814 10.7817 1.68815 8.80594 1.68182H8.76375C6.80454 1.67723 4.92227 2.44408 3.52406 3.81651C3.38083 3.95022 3.19096 4.02256 2.99507 4.01807C2.79918 4.01358 2.61283 3.9326 2.47588 3.79247C2.33893 3.65233 2.26226 3.46417 2.26227 3.26823C2.26228 3.07229 2.33897 2.88413 2.47594 2.74401C4.1705 1.08782 6.44983 0.166709 8.81928 0.180574C11.1887 0.19444 13.4571 1.14216 15.1322 2.81807L16.5 4.18963V1.49995C16.5 1.30103 16.579 1.11027 16.7197 0.969617C16.8603 0.828965 17.0511 0.749947 17.25 0.749947C17.4489 0.749947 17.6397 0.828965 17.7803 0.969617C17.921 1.11027 18 1.30103 18 1.49995ZM14.4759 14.1834C13.0639 15.5627 11.1651 16.3297 9.1912 16.3181C7.21734 16.3065 5.32762 15.5173 3.93188 14.1215L2.56031 12.7499H5.25C5.44891 12.7499 5.63968 12.6709 5.78033 12.5303C5.92098 12.3896 6 12.1989 6 11.9999C6 11.801 5.92098 11.6103 5.78033 11.4696C5.63968 11.329 5.44891 11.2499 5.25 11.2499H0.75C0.551088 11.2499 0.360322 11.329 0.21967 11.4696C0.0790178 11.6103 0 11.801 0 11.9999V16.4999C0 16.6989 0.0790178 16.8896 0.21967 17.0303C0.360322 17.1709 0.551088 17.2499 0.75 17.2499C0.948912 17.2499 1.13968 17.1709 1.28033 17.0303C1.42098 16.8896 1.5 16.6989 1.5 16.4999V13.8103L2.87156 15.1818C4.54426 16.8629 6.816 17.8112 9.1875 17.8181H9.23719C11.5885 17.8241 13.8476 16.9036 15.525 15.2559C15.662 15.1158 15.7387 14.9276 15.7387 14.7317C15.7387 14.5357 15.662 14.3476 15.5251 14.2074C15.3881 14.0673 15.2018 13.9863 15.0059 13.9818C14.81 13.9773 14.6201 14.0497 14.4769 14.1834H14.4759Z" fill="#CECBDE"/>
</svg>
