<svg width="32" height="33" viewBox="0 0 32 33" fill="none" xmlns="http://www.w3.org/2000/svg">
<path opacity="0.2" d="M21.6841 3.80534L28.8666 23.5389C28.9573 23.7881 28.9453 24.0632 28.8332 24.3035C28.7211 24.5439 28.5181 24.7299 28.2689 24.8206L11.3544 30.977C11.1052 31.0677 10.8301 31.0557 10.5898 30.9436C10.3494 30.8315 10.1634 30.6285 10.0727 30.3793L2.89028 10.6457C2.79957 10.3965 2.81158 10.1215 2.92366 9.88111C3.03575 9.64074 3.23873 9.45474 3.48795 9.36403L8.18641 7.65393C7.87091 8.68902 7.90123 9.79872 8.27278 10.815L8.6148 11.7547L18.0117 8.33452L17.6697 7.39483C17.3011 6.37746 16.611 5.5079 15.704 4.91777L20.4024 3.20767C20.6516 3.11696 20.9267 3.12897 21.1671 3.24106C21.4074 3.35314 21.5934 3.55612 21.6841 3.80534Z" fill="#CECBDE"/>
<path d="M21.4319 17.7314C21.5226 17.9806 21.5106 18.2557 21.3985 18.496C21.2865 18.7364 21.0835 18.9224 20.8343 19.0131L13.3167 21.7493C13.0675 21.84 12.7924 21.828 12.5521 21.7159C12.3117 21.6038 12.1257 21.4008 12.035 21.1516C11.9443 20.9024 11.9563 20.6273 12.0684 20.387C12.1805 20.1466 12.3835 19.9606 12.6327 19.8699L20.1502 17.1337C20.3994 17.043 20.6745 17.055 20.9149 17.1671C21.1552 17.2792 21.3412 17.4822 21.4319 17.7314ZM18.7821 13.375L11.2646 16.1111C11.0154 16.2018 10.8124 16.3878 10.7003 16.6282C10.5882 16.8686 10.5762 17.1436 10.6669 17.3928C10.7576 17.6421 10.9436 17.845 11.184 17.9571C11.4244 18.0692 11.6994 18.0812 11.9486 17.9905L19.4662 15.2544C19.7154 15.1636 19.9184 14.9776 20.0305 14.7373C20.1425 14.4969 20.1546 14.2219 20.0638 13.9726C19.9731 13.7234 19.7871 13.5204 19.5468 13.4084C19.3064 13.2963 19.0314 13.2843 18.7821 13.375ZM22.6238 3.46328L29.8062 23.1968C29.9877 23.6953 29.9636 24.2454 29.7395 24.7261C29.5153 25.2068 29.1093 25.5788 28.6109 25.7603L11.6964 31.9166C11.198 32.098 10.6479 32.074 10.1672 31.8498C9.68642 31.6257 9.31443 31.2197 9.13301 30.7213L1.95058 10.9877C1.76917 10.4893 1.79318 9.93919 2.01735 9.45845C2.24152 8.97771 2.64748 8.60572 3.14593 8.4243L7.40509 6.87409C7.71792 6.09076 8.19266 5.38234 8.79824 4.79518C9.40381 4.20803 10.1266 3.75539 10.9192 3.4669C11.7118 3.17842 12.5564 3.06058 13.3977 3.12111C14.239 3.18163 15.0581 3.41916 15.8012 3.81814L20.0604 2.26794C20.5588 2.08652 21.1089 2.11054 21.5897 2.33471C22.0704 2.55888 22.4424 2.96484 22.6238 3.46328ZM9.21247 10.473L16.73 7.73681C16.3672 6.73992 15.6232 5.928 14.6617 5.47966C13.7002 5.03132 12.6001 4.98328 11.6032 5.34612C10.6063 5.70896 9.79435 6.45295 9.34601 7.41442C8.89767 8.37589 8.84963 9.47608 9.21247 10.473ZM20.7444 4.14732L17.6023 5.29095C18.0358 5.81669 18.3763 6.41251 18.6094 7.05277L18.9514 7.99246C19.0421 8.24168 19.0301 8.51673 18.918 8.7571C18.8059 8.99747 18.603 9.18347 18.3537 9.27417L8.95682 12.6944C8.7076 12.7851 8.43255 12.7731 8.19218 12.661C7.95181 12.5489 7.76582 12.3459 7.67511 12.0967L7.33309 11.157C7.10007 10.5167 6.97798 9.84139 6.97207 9.16006L3.82997 10.3037L11.0124 30.0372L27.9269 23.8809L20.7444 4.14732Z" fill="#706D7E"/>
</svg>
