<svg width="44" height="45" viewBox="0 0 44 45" fill="none" xmlns="http://www.w3.org/2000/svg">
<g filter="url(#filter0_d_3557_71887)">
<path d="M25.0002 17.873C25.0002 17.6741 25.0792 17.4834 25.2199 17.3427C25.3605 17.2021 25.5513 17.123 25.7502 17.123H32.5002C32.6991 17.123 32.8899 17.2021 33.0306 17.3427C33.1712 17.4834 33.2502 17.6741 33.2502 17.873C33.2502 18.072 33.1712 18.2627 33.0306 18.4034C32.8899 18.544 32.6991 18.623 32.5002 18.623H25.7502C25.5513 18.623 25.3605 18.544 25.2199 18.4034C25.0792 18.2627 25.0002 18.072 25.0002 17.873ZM32.5002 26.123H25.7502C25.5513 26.123 25.3605 26.2021 25.2199 26.3427C25.0792 26.4834 25.0002 26.6741 25.0002 26.873C25.0002 27.072 25.0792 27.2627 25.2199 27.4034C25.3605 27.544 25.5513 27.623 25.7502 27.623H32.5002C32.6991 27.623 32.8899 27.544 33.0306 27.4034C33.1712 27.2627 33.2502 27.072 33.2502 26.873C33.2502 26.6741 33.1712 26.4834 33.0306 26.3427C32.8899 26.2021 32.6991 26.123 32.5002 26.123ZM32.5002 20.123H25.7502C25.5513 20.123 25.3605 20.2021 25.2199 20.3427C25.0792 20.4834 25.0002 20.6741 25.0002 20.873C25.0002 21.072 25.0792 21.2627 25.2199 21.4034C25.3605 21.544 25.5513 21.623 25.7502 21.623H32.5002C32.6991 21.623 32.8899 21.544 33.0306 21.4034C33.1712 21.2627 33.2502 21.072 33.2502 20.873C33.2502 20.6741 33.1712 20.4834 33.0306 20.3427C32.8899 20.2021 32.6991 20.123 32.5002 20.123ZM32.5002 23.123H25.7502C25.5513 23.123 25.3605 23.2021 25.2199 23.3427C25.0792 23.4834 25.0002 23.6741 25.0002 23.873C25.0002 24.072 25.0792 24.2627 25.2199 24.4034C25.3605 24.544 25.5513 24.623 25.7502 24.623H32.5002C32.6991 24.623 32.8899 24.544 33.0306 24.4034C33.1712 24.2627 33.2502 24.072 33.2502 23.873C33.2502 23.6741 33.1712 23.4834 33.0306 23.3427C32.8899 23.2021 32.6991 23.123 32.5002 23.123ZM23.5002 16.373V28.373C23.5002 28.7709 23.3422 29.1524 23.0609 29.4337C22.7796 29.715 22.398 29.873 22.0002 29.873H18.2502C17.2605 29.8731 16.2805 29.6772 15.3668 29.2967C14.4531 28.9162 13.6238 28.3587 12.9266 27.6562C12.2294 26.9537 11.6782 26.1201 11.3046 25.2036C10.9311 24.287 10.7427 23.3056 10.7502 22.3159C10.7812 18.2124 14.1833 14.873 18.3346 14.873H22.0002C22.398 14.873 22.7796 15.0311 23.0609 15.3124C23.3422 15.5937 23.5002 15.9752 23.5002 16.373ZM22.0002 16.373H18.3346C15.0046 16.373 12.2746 19.044 12.2502 22.3271C12.2442 23.1189 12.3949 23.9041 12.6937 24.6373C12.9925 25.3706 13.4335 26.0375 13.9913 26.5995C14.549 27.1615 15.2125 27.6076 15.9435 27.912C16.6744 28.2164 17.4584 28.3731 18.2502 28.373H22.0002V16.373Z" fill="#CECBDE"/>
</g>
<defs>
<filter id="filter0_d_3557_71887" x="-9.25" y="-5.12695" width="62.5" height="55" filterUnits="userSpaceOnUse" color-interpolation-filters="sRGB">
<feFlood flood-opacity="0" result="BackgroundImageFix"/>
<feColorMatrix in="SourceAlpha" type="matrix" values="0 0 0 0 0 0 0 0 0 0 0 0 0 0 0 0 0 0 127 0" result="hardAlpha"/>
<feOffset/>
<feGaussianBlur stdDeviation="10"/>
<feComposite in2="hardAlpha" operator="out"/>
<feColorMatrix type="matrix" values="0 0 0 0 0.807843 0 0 0 0 0.796078 0 0 0 0 0.870588 0 0 0 1 0"/>
<feBlend mode="normal" in2="BackgroundImageFix" result="effect1_dropShadow_3557_71887"/>
<feBlend mode="normal" in="SourceGraphic" in2="effect1_dropShadow_3557_71887" result="shape"/>
</filter>
</defs>
</svg>
