<svg width="30" height="26" viewBox="0 0 30 26" fill="none" xmlns="http://www.w3.org/2000/svg">
<path opacity="0.5" d="M6.53888 7.50255L10.1611 6.53198L14.0434 21.0209L10.4212 21.9914C10.229 22.0429 10.0277 22.0287 9.86152 21.9519C9.69533 21.8751 9.57786 21.742 9.53495 21.5818L5.97619 8.30036C5.93329 8.14025 5.96847 7.96625 6.07399 7.81663C6.17952 7.66701 6.34674 7.55403 6.53888 7.50255Z" fill="#CECBDE"/>
<path d="M5.25175 8.49451L8.81051 21.776C8.89631 22.0962 9.13125 22.3624 9.46364 22.516C9.79604 22.6697 10.1987 22.6981 10.5829 22.5952L23.6229 19.1011C24.0072 18.9981 24.3416 18.7722 24.5527 18.473C24.7637 18.1737 24.8341 17.8257 24.7483 17.5055L21.1895 4.224C21.1037 3.90377 20.8688 3.63757 20.5364 3.48394C20.204 3.33032 19.8014 3.30185 19.4171 3.40482L6.37711 6.89888C5.99284 7.00184 5.6584 7.2278 5.44735 7.52704C5.2363 7.82628 5.16594 8.17429 5.25175 8.49451ZM6.70064 8.10628L9.59841 7.32983L13.1572 20.6113L10.2594 21.3878L6.70064 8.10628ZM19.7406 4.61223L23.2994 17.8937L14.6061 20.2231L11.0473 6.9416L19.7406 4.61223Z" fill="#CECBDE"/>
</svg>
