<svg width="16" height="12" viewBox="0 0 16 12" fill="none" xmlns="http://www.w3.org/2000/svg">
<path d="M4.34375 1.81949C4.34375 1.59571 4.43265 1.3811 4.59088 1.22287C4.74911 1.06463 4.96372 0.975739 5.1875 0.975739H14.1875C14.4113 0.975739 14.6259 1.06463 14.7841 1.22287C14.9424 1.3811 15.0312 1.59571 15.0312 1.81949C15.0312 2.04326 14.9424 2.25788 14.7841 2.41611C14.6259 2.57434 14.4113 2.66324 14.1875 2.66324H5.1875C4.96372 2.66324 4.74911 2.57434 4.59088 2.41611C4.43265 2.25788 4.34375 2.04326 4.34375 1.81949ZM14.1875 5.47574H5.1875C4.96372 5.47574 4.74911 5.56463 4.59088 5.72287C4.43265 5.8811 4.34375 6.09571 4.34375 6.31949C4.34375 6.54326 4.43265 6.75788 4.59088 6.91611C4.74911 7.07434 4.96372 7.16324 5.1875 7.16324H14.1875C14.4113 7.16324 14.6259 7.07434 14.7841 6.91611C14.9424 6.75788 15.0312 6.54326 15.0312 6.31949C15.0312 6.09571 14.9424 5.8811 14.7841 5.72287C14.6259 5.56463 14.4113 5.47574 14.1875 5.47574ZM14.1875 9.97574H5.1875C4.96372 9.97574 4.74911 10.0646 4.59088 10.2229C4.43265 10.3811 4.34375 10.5957 4.34375 10.8195C4.34375 11.0433 4.43265 11.2579 4.59088 11.4161C4.74911 11.5743 4.96372 11.6632 5.1875 11.6632H14.1875C14.4113 11.6632 14.6259 11.5743 14.7841 11.4161C14.9424 11.2579 15.0312 11.0433 15.0312 10.8195C15.0312 10.5957 14.9424 10.3811 14.7841 10.2229C14.6259 10.0646 14.4113 9.97574 14.1875 9.97574ZM2.09375 5.19449C1.87125 5.19449 1.65374 5.26047 1.46873 5.38409C1.28373 5.5077 1.13953 5.6834 1.05439 5.88897C0.969237 6.09454 0.946959 6.32074 0.990367 6.53897C1.03378 6.75719 1.14092 6.95765 1.29826 7.11498C1.45559 7.27232 1.65605 7.37946 1.87427 7.42287C2.0925 7.46628 2.3187 7.444 2.52427 7.35885C2.72984 7.2737 2.90554 7.12951 3.02915 6.94451C3.15277 6.7595 3.21875 6.54199 3.21875 6.31949C3.21875 6.02112 3.10022 5.73497 2.88925 5.52399C2.67827 5.31301 2.39212 5.19449 2.09375 5.19449ZM2.09375 0.694489C1.87125 0.694489 1.65374 0.760469 1.46873 0.884085C1.28373 1.0077 1.13953 1.1834 1.05439 1.38897C0.969237 1.59454 0.946959 1.82074 0.990367 2.03897C1.03378 2.25719 1.14092 2.45765 1.29826 2.61498C1.45559 2.77232 1.65605 2.87946 1.87427 2.92287C2.0925 2.96628 2.3187 2.944 2.52427 2.85885C2.72984 2.7737 2.90554 2.62951 3.02915 2.4445C3.15277 2.2595 3.21875 2.04199 3.21875 1.81949C3.21875 1.52112 3.10022 1.23497 2.88925 1.02399C2.67827 0.813015 2.39212 0.694489 2.09375 0.694489ZM2.09375 9.69449C1.87125 9.69449 1.65374 9.76047 1.46873 9.88409C1.28373 10.0077 1.13953 10.1834 1.05439 10.389C0.969237 10.5945 0.946959 10.8207 0.990367 11.039C1.03378 11.2572 1.14092 11.4576 1.29826 11.615C1.45559 11.7723 1.65605 11.8795 1.87427 11.9229C2.0925 11.9663 2.3187 11.944 2.52427 11.8589C2.72984 11.7737 2.90554 11.6295 3.02915 11.4445C3.15277 11.2595 3.21875 11.042 3.21875 10.8195C3.21875 10.5211 3.10022 10.235 2.88925 10.024C2.67827 9.81301 2.39212 9.69449 2.09375 9.69449Z" fill="#9E9BAD"/>
</svg>
