<svg width="32" height="32" viewBox="0 0 32 32" fill="none" xmlns="http://www.w3.org/2000/svg">
<path opacity="0.2" d="M10.1743 16.085L16.7689 30.3695C17.0265 30.8463 17.4565 31.2068 17.9709 31.3771C18.4854 31.5474 19.0456 31.5146 19.5367 31.2856C20.0279 31.0566 20.413 30.6485 20.6133 30.1449C20.8135 29.6413 20.8138 29.0803 20.6141 28.5765L15.8102 18.1324C15.7546 18.0133 15.723 17.8844 15.7172 17.7531C15.7115 17.6218 15.7316 17.4907 15.7766 17.3672C15.8215 17.2437 15.8904 17.1303 15.9792 17.0334C16.068 16.9366 16.175 16.8582 16.2942 16.8027L24.1215 13.0923C24.6307 12.8538 25.0246 12.4231 25.217 11.8947C25.4093 11.3663 25.3843 10.7832 25.1476 10.2732C24.909 9.76398 24.4784 9.37007 23.95 9.17775C23.4216 8.98542 22.8385 9.01038 22.3285 9.24714L10.6534 14.7576C10.4143 14.8705 10.2296 15.0736 10.1398 15.3224C10.05 15.5712 10.0624 15.8454 10.1743 16.085Z" fill="#CECBDE"/>
<path d="M8.57418 3.44282L8.60141 3.43011L15.683 0.383427C16.1622 0.165281 16.7082 0.144924 17.2023 0.326772C17.6965 0.50862 18.099 0.878 18.3225 1.35476L21.6628 8.45545L21.9104 8.33805C22.6532 8.03288 23.4849 8.02532 24.233 8.31694C24.9811 8.60856 25.5883 9.17697 25.9286 9.90428C26.2689 10.6316 26.3161 11.462 26.0606 12.2232C25.805 12.9844 25.2662 13.618 24.556 13.9927L24.3212 14.1041L25.8227 17.303C25.9337 17.5411 25.9968 17.7987 26.0082 18.0611C26.0197 18.3235 25.9794 18.5857 25.8895 18.8325C25.7997 19.0793 25.6621 19.3061 25.4846 19.4997C25.3072 19.6934 25.0933 19.8502 24.8552 19.9612L22.8237 20.9085C22.3436 21.1314 21.7948 21.1549 21.2974 20.9739C20.8 20.7928 20.3947 20.422 20.1702 19.9427L18.6693 16.7825L16.7193 17.7143L21.5231 28.1584C21.7197 28.5329 21.8382 28.9434 21.8715 29.365C21.9048 29.7866 21.8521 30.2106 21.7167 30.6113C21.5813 31.012 21.366 31.381 21.0837 31.6961C20.8015 32.0111 20.4583 32.2655 20.0748 32.444C19.6914 32.6225 19.2757 32.7213 18.853 32.7344C18.4302 32.7475 18.0092 32.6746 17.6155 32.5202C17.2217 32.3658 16.8634 32.1331 16.5622 31.8362C16.261 31.5393 16.0233 31.1843 15.8633 30.7927L9.26791 16.5067C9.04467 16.0264 9.02103 15.4773 9.20216 14.9796C9.38329 14.4819 9.75441 14.0764 10.2341 13.8521L15.9675 11.1434L14.99 9.10355L14.9744 9.10984L9.07882 11.661C8.59894 11.88 8.05201 11.9005 7.55708 11.7181C7.06215 11.5357 6.65931 11.1652 6.43626 10.6872L6.15908 10.0929C5.88156 9.49775 5.72398 8.85381 5.69533 8.1978C5.66668 7.5418 5.76753 6.88657 5.99211 6.26954C6.21669 5.65251 6.56061 5.08576 7.00423 4.60164C7.44785 4.11753 7.98248 3.72554 8.57759 3.44805L8.57418 3.44282ZM21.9775 19.096L24.0098 18.1503L22.5105 14.9601L20.4701 15.9282L21.9775 19.096ZM17.678 29.9514C17.7317 30.0978 17.8153 30.2314 17.9235 30.3438C18.0317 30.4562 18.162 30.5448 18.3062 30.6041C18.4505 30.6634 18.6055 30.6921 18.7614 30.6883C18.9173 30.6845 19.0707 30.6483 19.2119 30.5821C19.3531 30.5158 19.4789 30.421 19.5815 30.3035C19.6841 30.186 19.7611 30.0485 19.8077 29.8996C19.8543 29.7508 19.8694 29.5939 19.8521 29.4389C19.8348 29.2839 19.7855 29.1342 19.7073 28.9993L14.9057 18.556C14.6835 18.0763 14.6603 17.5281 14.8411 17.0313C15.0219 16.5346 15.3921 16.1296 15.8707 15.9049L23.7035 12.1832C23.949 12.0437 24.1331 11.817 24.2193 11.5481C24.3054 11.2792 24.2873 10.9877 24.1684 10.7315C24.0496 10.4753 23.8388 10.2732 23.5778 10.1653C23.3168 10.0574 23.0248 10.0516 22.7598 10.149L11.0811 15.6622L17.678 29.9514ZM7.96331 9.24372L8.24475 9.841C8.2529 9.83623 8.26149 9.83222 8.27039 9.82905L14.1743 7.2769C14.6522 7.06494 15.1938 7.04785 15.6841 7.22927C16.1743 7.41068 16.5744 7.77628 16.7992 8.24823L17.7763 10.2893L19.8546 9.30842L16.5102 2.20762L16.4834 2.21914L9.40504 5.26434C8.68778 5.60295 8.13381 6.21184 7.86429 6.95781C7.59477 7.70379 7.63164 8.52614 7.96683 9.24501L7.96331 9.24372Z" fill="#706D7E"/>
</svg>
