<svg width="14" height="12" viewBox="0 0 14 12" fill="none" xmlns="http://www.w3.org/2000/svg">
<path d="M11.5 7.49988C11.0566 7.5003 10.6259 7.64778 10.2753 7.91921C9.92464 8.19065 9.67397 8.57072 9.5625 8.99988H3.5C2.96957 8.99988 2.46086 8.78916 2.08579 8.41409C1.71071 8.03902 1.5 7.53031 1.5 6.99988C1.5 6.46944 1.71071 5.96074 2.08579 5.58566C2.46086 5.21059 2.96957 4.99988 3.5 4.99988H9.5C10.163 4.99988 10.7989 4.73649 11.2678 4.26764C11.7366 3.7988 12 3.16292 12 2.49988C12 1.83684 11.7366 1.20095 11.2678 0.732111C10.7989 0.26327 10.163 -0.00012207 9.5 -0.00012207H3.5C3.36739 -0.00012207 3.24021 0.0525564 3.14645 0.146325C3.05268 0.240093 3 0.36727 3 0.499878C3 0.632486 3.05268 0.759663 3.14645 0.853431C3.24021 0.947199 3.36739 0.999878 3.5 0.999878H9.5C9.89782 0.999878 10.2794 1.15791 10.5607 1.43922C10.842 1.72052 11 2.10205 11 2.49988C11 2.8977 10.842 3.27923 10.5607 3.56054C10.2794 3.84184 9.89782 3.99988 9.5 3.99988H3.5C2.70435 3.99988 1.94129 4.31595 1.37868 4.87856C0.816071 5.44117 0.5 6.20423 0.5 6.99988C0.5 7.79553 0.816071 8.55859 1.37868 9.1212C1.94129 9.68381 2.70435 9.99988 3.5 9.99988H9.5625C9.65601 10.362 9.84919 10.6907 10.1201 10.9486C10.391 11.2064 10.7288 11.3832 11.0952 11.4587C11.4615 11.5342 11.8416 11.5055 12.1925 11.3758C12.5433 11.2461 12.8507 11.0207 13.0798 10.725C13.3089 10.4294 13.4506 10.0754 13.4886 9.70334C13.5267 9.33126 13.4596 8.95596 13.2951 8.62007C13.1305 8.28418 12.8751 8.00116 12.5578 7.80315C12.2405 7.60513 11.874 7.50007 11.5 7.49988ZM11.5 10.4999C11.3022 10.4999 11.1089 10.4412 10.9444 10.3313C10.78 10.2215 10.6518 10.0653 10.5761 9.88256C10.5004 9.69984 10.4806 9.49877 10.5192 9.30479C10.5578 9.11081 10.653 8.93262 10.7929 8.79277C10.9327 8.65292 11.1109 8.55768 11.3049 8.51909C11.4989 8.48051 11.7 8.50031 11.8827 8.576C12.0654 8.65169 12.2216 8.77986 12.3315 8.94431C12.4414 9.10876 12.5 9.3021 12.5 9.49988C12.5 9.76509 12.3946 10.0194 12.2071 10.207C12.0196 10.3945 11.7652 10.4999 11.5 10.4999Z" fill="#CECBDE"/>
</svg>
