<svg width="12" height="12" viewBox="0 0 12 12" fill="none" xmlns="http://www.w3.org/2000/svg">
<path d="M11.5 1L11.5 11C11.5 11.2652 11.3946 11.5196 11.2071 11.7071C11.0196 11.8946 10.7652 12 10.5 12H8C7.73478 12 7.48043 11.8946 7.29289 11.7071C7.10536 11.5196 7 11.2652 7 11L7 1C7 0.734784 7.10536 0.48043 7.29289 0.292893C7.48043 0.105357 7.73478 0 8 0L10.5 0C10.7652 0 11.0196 0.105357 11.2071 0.292893C11.3946 0.48043 11.5 0.734784 11.5 1ZM4 0L1.5 0C1.23478 0 0.98043 0.105357 0.792893 0.292893C0.605357 0.48043 0.5 0.734784 0.5 1L0.5 11C0.5 11.2652 0.605357 11.5196 0.792893 11.7071C0.98043 11.8946 1.23478 12 1.5 12H4C4.26522 12 4.51957 11.8946 4.70711 11.7071C4.89464 11.5196 5 11.2652 5 11L5 1C5 0.734784 4.89464 0.48043 4.70711 0.292893C4.51957 0.105357 4.26522 0 4 0Z" fill="#FEC42A"/>
</svg>
